# xmcd CD database file
#
# Track frame offsets:
#	150
#	13002
#	23365
#	37207
#	49167
#	62317
#	75217
#	87302
#	98227
#	109627
#	121827
#	133112
#
# Disc length: 1934 seconds
#
# Revision: 6
# Processed by: cddbd v1.5.2PL0 Copyright (c) Steve Scherf et al.
# Submitted via: CDex 1.51
#
DISCID=88078c0c
DTITLE=Pennywise - About Time
DYEAR=1995
DGENRE=Punk
TTITLE0=Peaceful Day
TTITLE1=Waste Of Time
TTITLE2=Perfect People
TTITLE3=Every Single Day
TTITLE4=Searching
TTITLE5=Not Far Away
TTITLE6=Freebase
TTITLE7=It's What You Do With It
TTITLE8=Try
TTITLE9=Same Old Story
TTITLE10=I Won't Have It
TTITLE11=Killing Time
EXTD=YEAR: 1995
EXTT0=
EXTT1=
EXTT2=
EXTT3=
EXTT4=
EXTT5=
EXTT6=
EXTT7=
EXTT8=
EXTT9=
EXTT10=
EXTT11=
PLAYORDER=
